<?xml version="1.0" encoding="UTF-8" standalone="no"?>
<svg xmlns:rdf="http://www.w3.org/1999/02/22-rdf-syntax-ns#" xmlns="http://www.w3.org/2000/svg" xml:space="preserve" height="184.46" viewBox="0 0 192.90179 184.46124" width="192.9" version="1.1" xmlns:cc="http://creativecommons.org/ns#" xmlns:dc="http://purl.org/dc/elements/1.1/"><g transform="matrix(1.25 0 0 -1.25 -286.53 588.17)"><g><path d="m375.11 415.06c0.48059 3.1166 0.68264 7.8836 0.69842 8.3864l0.0204 0.53901c0.003 0.10277-0.0596 0.25637-0.14597 0.30367 0 0-1.095 0.7136-1.951 1.151-15.32 8.0191-31.98 12.607-44.86 14.494v24.382h-2.7534c-1.9329-1.3793-5.7608-3.3917-9.9643-2.0158-5.5261 1.7998-7.1425 5.4356-8.3344 7.462h-2.9035c-1.1954-2.0264-2.8118-5.6622-8.3344-7.462-4.2064-1.3758-8.0342 0.63652-9.9678 2.0158h-2.7534v-24.382c-11.463-1.6882-29.585-6.3162-44.856-14.494-0.84967-0.45843-1.947-1.151-1.947-1.151-0.0882-0.0473-0.15651-0.2009-0.14658-0.30368l0.0158-0.539c0.0198-0.5028 0.21899-5.2698 0.70602-8.3864h-7.6424v-49.765s28.893-3.2766 31.522-3.5394c6.4178-7.9432 18.72-23.679 42.173-36.549l2.6746-1.4296s2.6874 1.4296 2.6944 1.4296c23.452 12.87 35.752 28.606 42.173 36.549 2.6325 0.2628 31.52 3.5394 31.52 3.5394v49.765h-7.6365" fill="#fff"/><path d="m233.02 373.34h146.7v32.436h-146.7v-32.436z" fill="#0080c5"/><path d="m96.426 5.2676s-3.33 6.4234-11.905 8.5664c-7.353 1.837-12.574-2.227-12.574-2.227v42.629c0.002 1.449 0.606 7.602 12.082 9.26 4.532 0.656 7.916 2.111 10.348 4.451 0.876 0.84 1.54 1.696 2.049 2.481 0.509-0.785 1.172-1.641 2.047-2.481 2.437-2.34 5.817-3.795 10.347-4.451 11.48-1.658 12.08-7.811 12.09-9.26v-42.629s-5.23 4.064-12.58 2.227c-8.574-2.143-11.904-8.5664-11.904-8.5664zm-26.166 36.584c-1.726 0.159-3.644 0.419-5.705 0.767-0.016 0.003-0.031 0.005-0.047 0.008v0.002c-14.132 2.395-35.126 8.973-49.094 16.277-1.074 0.564-1.633 0.887-1.633 0.887-0.114 0.047-0.18 0.162-0.172 0.289l0.057 1.793c0.032 0.885 0.151 4.576 1.498 11.271h-10.414v3.893h183.37v-3.893h-10.42c1.35-6.694 1.46-10.386 1.5-11.271l0.06-1.793c0.01-0.127-0.06-0.24-0.17-0.287 0 0-0.57-0.322-1.64-0.889-13.84-7.35-36.37-14.566-51.88-16.697-0.55-0.092-1.39-0.191-2.46-0.293-0.17-0.018-0.36-0.048-0.53-0.064v0.015c-0.04-0.002-0.08-0.005-0.11-0.008v12.379c0 1.121-0.28 3.333-2.09 5.543-2.25 2.73-6.06 4.499-11.33 5.26-4.2 0.608-7.3 1.927-9.491 4.033-1.549 1.492-3.133 4.227-3.133 4.227s-1.525-2.679-3.133-4.227c-2.187-2.106-5.292-3.425-9.488-4.033-5.268-0.761-9.08-2.53-11.326-5.26-1.821-2.212-2.093-4.42-2.094-5.543v-12.338c-0.041 0.004-0.085 0.008-0.125 0.012v-0.06zm-65.51 83.558v2.77l37.832 4.22c4.752 6.97 25.467 31.69 51.344 45.41l2.498 1.35 2.519-1.35c25.887-13.72 46.597-38.44 51.337-45.41l37.84-4.22v-2.77h-183.37z" transform="matrix(.8 0 0 -.8 229.22 470.54)" fill="#013369"/><path d="m100.96 13.256c-6.277 0.081-12.056 4.763-10.966 12.775 0.117 0.849 0.448 2.397 0.867 3.074 0.141-1.333 0.64-4.285 2.125-7.447-0.515-0.184-0.943-0.26-0.943-0.26 0.152-0.319 0.363-0.726 0.363-0.726 1.1 0.207 2.072 0.669 2.914 1.336-0.203 0.325-0.339 0.539-0.435 0.707-0.296-0.233-0.595-0.433-0.924-0.615-1.67 2.921-2.446 5.68-2.76 7.127 0.018 0.089 0.199 0.135 0.346 0.115 6.872-0.889 10.093-4.394 11.073-8.192 0.64-2.492 0.43-5.1-0.43-7.224-0.06-0.15-0.18-0.397-0.38-0.379 0 0-1.01 0.527-2.425 1.916 0.317 0.18 0.675 0.431 0.885 0.601-0.22 0.19-0.434 0.394-0.637 0.586-0.918-0.757-1.876-1.143-2.619-1.324 0.246-0.176 0.51-0.349 0.767-0.517 0.4 0.1 0.783 0.257 0.783 0.257 1.596-1.214 2.976-1.736 2.976-1.736s-0.16-0.079-0.58-0.074zm-23.792 2.695l-0.789 2.264h-2.389l1.955 1.469-0.718 2.296 1.941-1.365 1.941 1.365-0.718-2.296 1.953-1.469h-2.387l-0.789-2.264zm8.477 0l-0.788 2.264h-2.388l1.955 1.469-0.719 2.296 1.94-1.365 1.941 1.365-0.717-2.296 1.953-1.469h-2.388l-0.789-2.264zm21.565 0l-0.79 2.264h-2.39l1.95 1.469-0.72 2.296 1.95-1.365 1.94 1.365-0.72-2.296 1.95-1.469h-2.39l-0.78-2.264zm8.48 0l-0.79 2.264h-2.39l1.95 1.469-0.72 2.296 1.95-1.365 1.94 1.365-0.72-2.296 1.95-1.469h-2.39l-0.78-2.264zm-38.522 7.651l-0.789 2.263h-2.389l1.955 1.471-0.718 2.297 1.941-1.363 1.941 1.363-0.718-2.297 1.953-1.471h-2.387l-0.789-2.263zm8.477 0l-0.788 2.263h-2.388l1.955 1.471-0.719 2.297 1.94-1.363 1.941 1.363-0.717-2.297 1.953-1.471h-2.388l-0.789-2.263zm21.565 0l-0.79 2.263h-2.39l1.95 1.471-0.72 2.297 1.95-1.365 1.94 1.365-0.72-2.297 1.95-1.471h-2.39l-0.78-2.263zm8.48 0l-0.79 2.263h-2.39l1.95 1.471-0.72 2.297 1.95-1.365 1.94 1.365-0.72-2.297 1.95-1.471h-2.39l-0.78-2.263zm-40.868 8.302v22.325c0 0.235-0.293 4.889 9.619 6.419 8.656 1.336 11.985 5.44 11.985 5.44s3.332-4.104 11.984-5.44c9.92-1.53 9.62-6.183 9.62-6.419v-22.325h-43.208zm-11.029 15.547c-13.696 2.621-29.679 7.263-45.195 14.975l-0.252 0.123 0.019 0.308c0.201 2.129 0.663 6.217 1.545 10.291h3.629c-0.585-2.557-1.271-7.039-1.41-8.525 13.889-6.605 29.287-11.146 41.664-13.603v-3.569zm65.277 0v3.569c12.38 2.457 27.78 6.998 41.67 13.603-0.13 1.486-0.82 5.968-1.41 8.525h3.63c0.89-4.074 1.34-8.162 1.54-10.291l0.02-0.308-0.26-0.123c-15.5-7.712-31.49-12.354-45.19-14.975zm-69.73 37.959c-1.99 0-3.293 0.677-3.293 2.149 0 1.6 0.731 2.033 2.689 2.341 1.239 0.189 1.715 0.252 1.715 0.868 0 0.59-0.454 0.804-1.555 0.804-0.497 0-0.911-0.052-1.292-0.16l-0.286-0.982h-1.216v2.084c0.773 0.384 1.745 0.517 2.847 0.517 2.075 0 3.346-0.687 3.346-2.347 0-1.704-0.89-1.972-2.869-2.268-1.102-0.158-1.537-0.233-1.537-0.814 0-0.551 0.362-0.731 1.506-0.731 0.401 0 0.803 0.095 1.046 0.18l0.286 0.963h1.218v-2.076c-0.827-0.412-1.684-0.528-2.605-0.528zm11.363 0c-2.637 0-3.515 1.006-3.515 3.801v0.019c0 2.796 0.878 3.801 3.515 3.801 0.984 0 1.925-0.115 2.752-0.527v-2.074h-1.219l-0.285 0.972c-0.306 0.073-0.668 0.139-1.176 0.139-1.578 0-1.726-0.933-1.726-2.311v-0.019c0-1.377 0.148-2.309 1.726-2.309 0.508 0 0.87 0.064 1.176 0.149l0.285 0.963h1.219v-2.076c-0.827-0.412-1.768-0.528-2.752-0.528zm11.211 0c-2.529 0-3.441 1.006-3.441 3.801v0.019c0 2.796 0.912 3.801 3.441 3.801 2.531 0 3.441-1.005 3.441-3.801v-0.019c0-2.795-0.91-3.801-3.441-3.801zm56.796 0c-2.67 0-3.5 1.006-3.5 3.801v0.019c0 2.796 0.89 3.801 3.11 3.801 0.68 0 1.21-0.125 1.71-0.474l0.08 0.371h1.22v-2.459l0.73-0.201v-1.131h-3.29v1.113l0.85 0.219 0.03 0.763c-0.33 0.211-0.7 0.309-1.26 0.309-1.16 0-1.32-0.933-1.32-2.311v-0.019c0-1.377 0.09-2.309 1.7-2.309 0.42 0 0.8 0.054 1.1 0.149l0.28 0.963h1.23v-2.076c-0.84-0.412-1.69-0.528-2.67-0.528zm-48.737 0.106v1.154l0.74 0.201v3.113c0 2.202 0.795 3.047 3.187 3.047 2.393 0 3.186-0.845 3.186-3.047v-3.113l0.742-0.201v-1.154h-3.389v1.132l0.848 0.223v3.25c0 0.921-0.233 1.43-1.387 1.43s-1.386-0.509-1.386-1.43v-3.25l0.847-0.223v-1.132h-3.388zm12.417 0v2.328h1.23l0.25-0.899h1.06v4.627l-0.85 0.221v1.135h3.5v-1.135l-0.85-0.221v-4.627h1.06l0.25 0.899h1.23v-2.328h-6.88zm11.8 0v1.132l0.84 0.223v4.701l-0.84 0.221v1.135h3.49v-1.135l-0.85-0.221v-4.701l0.85-0.223v-1.132h-3.49zm8.62 0v1.154l0.74 0.201v4.701l-0.74 0.201v1.155h3.02v-1.135l-0.68-0.221-0.08-3.676 2.35 5.032h2.24v-6.057l0.74-0.201v-1.154h-3.02v1.132l0.69 0.223 0.07 3.674-2.36-5.029h-2.97zm-40.896 1.386c1.472 0 1.578 0.932 1.578 2.309v0.019c0 1.378-0.106 2.311-1.578 2.311s-1.576-0.933-1.576-2.311v-0.019c0-1.377 0.105-2.309 1.576-2.309zm-53.228 9.155c-7.234 0-9.645 2.76-9.645 10.433v0.06c0 7.67 2.411 10.43 9.645 10.43 2.701 0 5.288-0.32 7.554-1.46v-5.69h-3.34l-0.785 2.67c-0.843 0.2-1.83 0.38-3.224 0.38-4.33 0-4.737-2.56-4.737-6.33v-0.06c0-3.78 0.407-6.34 4.737-6.34 1.394 0 2.381 0.18 3.224 0.41l0.785 2.64h3.34v-5.69c-2.266-1.132-4.853-1.453-7.554-1.453zm21.503 0c-6.944 0-9.443 2.76-9.443 10.433v0.06c0 7.67 2.499 10.43 9.443 10.43s9.444-2.76 9.444-10.43v-0.06c0-7.673-2.5-10.433-9.444-10.433zm13.514 0.291v3.166l2.035 0.556v12.9l-2.035 0.55v3.17h8.404v-3.11l-1.402-0.61-0.26-10.43 3.951 10.37h3.661l3.98-10.37-0.262 10.43-1.429 0.61v3.11h8.461v-3.17l-2.034-0.55v-12.9l2.034-0.556v-3.166h-8.95l-3.63 9.532-3.575-9.532h-8.949zm30.049 0v3.166l2.033 0.556v12.9l-2.033 0.55v3.17h11.158c4.94 0 7.26-2.04 7.26-6.1v-0.06c0-2.15-1.16-3.81-3.2-4.71 1.52-0.9 2.33-2.06 2.33-3.72v-0.06c0-3.31-1.57-5.692-6.16-5.692h-11.388zm23.018 0v3.109l2.32 0.613v12.9l-2.32 0.61v3.11h9.58v-3.11l-2.32-0.61v-12.9l2.32-0.613v-3.109h-9.58zm14.67 0v3.166l2.03 0.556v12.9l-2.03 0.55v3.17h8.27v-3.11l-1.85-0.61-0.2-10.09 6.45 13.81h6.13v-16.62l2.03-0.556v-3.166h-8.27v3.109l1.88 0.613 0.2 10.08-6.48-13.802h-8.16zm25.19 0v3.166l2.04 0.556v12.9l-2.04 0.55v3.17h17.32v-6.4h-3.37l-0.67 2.47h-6.3v-4.67h2.99l0.38 1.36h2.67v-6.25h-2.67l-0.38 1.4h-2.99v-4.33h6.3l0.67 2.47h3.37v-6.392h-17.32zm-106.44 3.802c4.039 0 4.331 2.56 4.331 6.34v0.06c0 3.77-0.292 6.33-4.331 6.33s-4.328-2.56-4.328-6.33v-0.06c0-3.78 0.289-6.34 4.328-6.34zm50.561 0.12h3.23c2.18 0 2.29 1.13 2.29 2.03 0 0.99-0.34 2.13-2.61 2.13h-2.91v-4.16zm0 7.55h2.79c2.91 0 3.6 0.82 3.6 2.5 0 1.69-0.49 2.44-3.39 2.44h-3v-4.94zm-52.363 24.8c3.335 4.91 28.388 32.1 46.576 40.41l1.461 0.6 1.482-0.6c18.194-8.31 43.234-35.5 46.574-40.41l-4.77 0.36c-6.11 7.21-26.53 28.78-43.286 36.83-16.751-8.05-37.149-29.62-43.26-36.83l-4.777-0.36z" transform="matrix(.8 0 0 -.8 229.22 470.54)" fill="#fff"/><path d="m63.793 47.451c-13.696 2.621-29.679 7.263-45.195 14.975l-0.252 0.123 3.783 2.074c13.889-6.605 29.287-11.146 41.664-13.603v-3.569zm65.277 0v3.569c12.38 2.457 27.78 6.998 41.67 13.603l3.78-2.074-0.26-0.123c-15.5-7.712-31.49-12.354-45.19-14.975zm-80.683 85.169c3.335 4.91 28.393 32.1 46.576 40.41l1.461 0.6v-3.82c-16.751-8.05-37.149-29.62-43.26-36.83l-4.777-0.36z" transform="matrix(.8 0 0 -.8 229.22 470.54)" fill="#d6d8d3"/><path d="m76.83 34.104v2.751l1.524 0.756v15.284l-1.489 0.582v2.396l6.508 1.654v-2.81l-1.488-1.143 0.002-9.121 4.687 13.834 3.244 0.973v-21.658l1.268-0.747v-2.751h-6.066v2.751l1.334 0.747v10.617l-4.598-14.115h-4.926zm15.553 0v2.783l1.416 0.715v19.308l-1.424 0.582v2.338l6.447 2.408v-2.752l-1.297-1.556v-10.678h2.168l0.807 1.166h1.72v-5.766h-1.72l-0.838 1.231h-2.137v-6.479h2.845l0.75 2.301h2.46v-5.601h-11.197zm12.497 0v2.783l1.36 0.715v17.234l-1.6 1.314v2.754l11.38-3.041v-7.08h-2.65l-0.53 4.238-2.78 0.75v-16.169l1.27-0.715v-2.783h-6.45z" transform="matrix(.8 0 0 -.8 229.22 470.54)" fill="#d50a0a"/><path d="m96.137 15.988c-0.225 0.189-0.482 0.392-0.733 0.629 1.037 0.221 2.011 0.686 2.881 1.403 0.194-0.216 0.401-0.429 0.611-0.647-0.594-0.492-1.464-1.073-2.759-1.385zm-1.514 1.41c-0.196 0.222-0.4 0.463-0.574 0.688 1.141 0.229 2.15 0.748 2.978 1.443 0.176-0.23 0.361-0.472 0.561-0.711-0.975-0.803-2.093-1.265-2.965-1.42zm-1.189 1.541c-0.179 0.266-0.493 0.778-0.493 0.778 1.023 0.195 2.065 0.653 2.959 1.398 0.155-0.23 0.327-0.479 0.51-0.74-0.712-0.601-1.726-1.187-2.976-1.436z" transform="matrix(.8 0 0 -.8 229.22 470.54)" fill="#013369"/></g></g></svg>
